<?xml version="1.0" encoding="UTF-8"?>
<svg version="1.1" xmlns="http://www.w3.org/2000/svg" width="185" height="185">
<path d="M0 0 C1.18613892 0.00785522 1.18613892 0.00785522 2.39624023 0.01586914 C3.67724609 0.02070313 3.67724609 0.02070313 4.98413086 0.02563477 C6.33087891 0.03820313 6.33087891 0.03820313 7.70483398 0.05102539 C8.6065332 0.05553711 9.50823242 0.06004883 10.43725586 0.06469727 C12.67234712 0.07652315 14.90730835 0.09300319 17.14233398 0.11352539 C17.47233398 1.76352539 17.80233398 3.41352539 18.14233398 5.11352539 C14.47793587 7.55645746 13.7104669 6.99195358 9.51733398 6.36352539 C5.24932585 6.22479796 5.24932585 6.22479796 1.75219727 8.41430664 C-1.29571444 12.34472052 -3.52568967 16.73673751 -5.85766602 21.11352539 C-6.84766602 22.43352539 -7.83766602 23.75352539 -8.85766602 25.11352539 C1.70233398 25.11352539 12.26233398 25.11352539 23.14233398 25.11352539 C23.14233398 29.11352539 23.14233398 29.11352539 21.22827148 31.05102539 C20.33366211 31.73165039 19.43905273 32.41227539 18.51733398 33.11352539 C17.01686523 34.2852832 17.01686523 34.2852832 15.48608398 35.48071289 C14.67397461 36.11251465 14.67397461 36.11251465 13.84545898 36.75708008 C10.82656423 39.16146357 7.93085672 41.70844405 5.01733398 44.23852539 C-0.15576972 48.69926955 -5.42647951 52.96960062 -10.85766602 57.11352539 C-24.47632316 66.26103784 -24.47632316 66.26103784 -34.85766602 78.11352539 C-34.94926939 80.17645524 -34.97517781 82.24241424 -34.97119141 84.30737305 C-34.97111588 85.60857086 -34.97104034 86.90976868 -34.97096252 88.25039673 C-34.96585548 89.6761275 -34.96063948 91.10185789 -34.95532227 92.52758789 C-34.95345749 93.982045 -34.95203387 95.43650273 -34.95103455 96.89096069 C-34.94721407 100.72145315 -34.93738778 104.55190776 -34.92633057 108.38238525 C-34.91610637 112.29015593 -34.91153476 116.1979327 -34.90649414 120.10571289 C-34.8957651 127.77500099 -34.8786943 135.44425789 -34.85766602 143.11352539 C-34.00011719 143.46656738 -33.14256836 143.81960937 -32.2590332 144.18334961 C-29.06794625 145.49791144 -25.87741818 146.81381194 -22.68725586 148.13061523 C-21.3082448 148.69950991 -19.92901519 149.26787514 -18.54956055 149.83569336 C-16.56313869 150.65346328 -14.57751889 151.47315418 -12.59204102 152.29321289 C-11.39804688 152.78547363 -10.20405273 153.27773437 -8.97387695 153.78491211 C-6.54744679 154.81943365 -4.19462104 155.89446444 -1.85766602 157.11352539 C-2.18766602 158.10352539 -2.51766602 159.09352539 -2.85766602 160.11352539 C-27.27766602 160.11352539 -51.69766602 160.11352539 -76.85766602 160.11352539 C-77.18766602 159.12352539 -77.51766602 158.13352539 -77.85766602 157.11352539 C-77.10670654 156.79601318 -76.35574707 156.47850098 -75.58203125 156.15136719 C-72.15300238 154.7014277 -68.72408328 153.2512288 -65.29516602 151.80102539 C-64.11374023 151.30151367 -62.93231445 150.80200195 -61.71508789 150.28735352 C-60.56459961 149.80073242 -59.41411133 149.31411133 -58.22875977 148.81274414 C-57.17615967 148.36761475 -56.12355957 147.92248535 -55.0390625 147.46386719 C-51.641726 146.02186978 -48.24917638 144.56916538 -44.85766602 143.11352539 C-44.81131602 134.70767494 -44.77578331 126.30187792 -44.75404167 117.89593124 C-44.74360654 113.99266799 -44.72945231 110.08949221 -44.70678711 106.1862793 C-44.68504903 102.41913239 -44.67309535 98.6520696 -44.66791153 94.88486481 C-44.6642175 93.44795661 -44.65700399 92.01105298 -44.6462059 90.5741806 C-44.63167901 88.56097405 -44.63084899 86.54768278 -44.63061523 84.53442383 C-44.62617401 83.38858826 -44.62173279 82.24275269 -44.61715698 81.06219482 C-44.85694127 78.1224109 -45.23472607 76.54386436 -46.85766602 74.11352539 C-49.05444438 72.25295954 -51.2405977 70.51516711 -53.54516602 68.80102539 C-61.26466489 62.91432504 -61.26466489 62.91432504 -64.35766602 59.61352539 C-67.4869017 56.29463906 -70.99400651 53.62535945 -74.60766602 50.86352539 C-79.29866945 47.27098513 -83.62444076 43.54927892 -87.73266602 39.30102539 C-91.82244089 35.07189523 -95.99197933 31.41773096 -100.85766602 28.11352539 C-95.54336787 34.28605092 -95.54336787 34.28605092 -89.85766602 40.11352539 C-90.18766602 41.10352539 -90.51766602 42.09352539 -90.85766602 43.11352539 C-95.86057006 44.3642514 -100.12011304 44.1308649 -104.85766602 42.11352539 C-108.85522535 39.44587816 -112.11407451 36.67811636 -113.85766602 32.11352539 C-114.51277204 26.71270941 -114.80052972 21.04596359 -112.23266602 16.11352539 C-109.00111443 12.0315655 -105.78423336 9.7557145 -100.85766602 8.11352539 C-94.55563486 7.57945495 -90.04450358 8.34228529 -84.85766602 12.11352539 C-81.67111563 15.30007578 -79.88161976 17.64013967 -79.80688477 22.23706055 C-79.82364258 23.18629395 -79.84040039 24.13552734 -79.85766602 25.11352539 C-71.89530728 25.3922651 -63.93500201 25.60510466 -55.96896267 25.73527145 C-52.26921627 25.79776823 -48.5728183 25.88240767 -44.875 26.01879883 C-41.30203365 26.14975147 -37.73227252 26.22103524 -34.15709114 26.25205231 C-32.79752145 26.27413303 -31.43811718 26.31726623 -30.07992363 26.38228607 C-25.75488317 26.58099188 -21.96322994 26.55028626 -17.85766602 25.11352539 C-14.58735301 21.47361205 -12.77132276 17.57924783 -10.85766602 13.11352539 C-10.09333499 11.8378899 -9.29984488 10.57851441 -8.45922852 9.35180664 C-7.12333487 7.37436723 -5.79006816 5.39515098 -4.45922852 3.41430664 C-2.17507334 0.13292274 -2.17507334 0.13292274 0 0 Z M-104.85766602 18.11352539 C-105.18766602 19.43352539 -105.51766602 20.75352539 -105.85766602 22.11352539 C-104.86766602 22.44352539 -103.87766602 22.77352539 -102.85766602 23.11352539 C-102.19766602 22.78352539 -101.53766602 22.45352539 -100.85766602 22.11352539 C-101.18766602 20.79352539 -101.51766602 19.47352539 -101.85766602 18.11352539 C-102.84766602 18.11352539 -103.83766602 18.11352539 -104.85766602 18.11352539 Z M-90.85766602 18.11352539 C-91.18766602 19.43352539 -91.51766602 20.75352539 -91.85766602 22.11352539 C-90.53766602 22.44352539 -89.21766602 22.77352539 -87.85766602 23.11352539 C-87.52766602 21.79352539 -87.19766602 20.47352539 -86.85766602 19.11352539 C-88.17766602 18.78352539 -89.49766602 18.45352539 -90.85766602 18.11352539 Z M-106.85766602 30.11352539 C-107.18766602 31.43352539 -107.51766602 32.75352539 -107.85766602 34.11352539 C-105.38266602 34.60852539 -105.38266602 34.60852539 -102.85766602 35.11352539 C-103.12442805 33.12860897 -103.12442805 33.12860897 -103.85766602 31.11352539 C-104.84766602 30.78352539 -105.83766602 30.45352539 -106.85766602 30.11352539 Z M-87.85766602 32.11352539 C-86.86766602 33.10352539 -85.87766602 34.09352539 -84.85766602 35.11352539 C-84.15359619 35.84466553 -83.44952637 36.57580566 -82.72412109 37.32910156 C-73.8372101 45.31532866 -65.16354258 45.60380828 -53.53808594 45.45166016 C-50.52846308 45.42588233 -47.53555693 45.51286318 -44.52758789 45.60766602 C-42.59985858 45.61249847 -40.67209926 45.61077622 -38.74438477 45.60180664 C-37.85571213 45.63550858 -36.96703949 45.66921051 -36.05143738 45.70393372 C-33.0924935 45.72261261 -33.0924935 45.72261261 -28.85766602 44.11352539 C-26.54766602 40.15352539 -24.23766602 36.19352539 -21.85766602 32.11352539 C-43.63766602 32.11352539 -65.41766602 32.11352539 -87.85766602 32.11352539 Z M-16.81860352 35.98852539 C-17.51856445 37.04040039 -17.51856445 37.04040039 -18.23266602 38.11352539 C-18.71477539 38.81477539 -19.19688477 39.51602539 -19.69360352 40.23852539 C-20.8897384 42.10115323 -20.8897384 42.10115323 -21.85766602 44.11352539 C-9.73377173 45.38083611 -9.73377173 45.38083611 0.89233398 40.36352539 C2.32952878 38.96768872 3.74680811 37.55102197 5.14233398 36.11352539 C6.79341736 34.76094296 8.45629159 33.42227158 10.14233398 32.11352539 C7.28790646 32.05915534 4.43453322 32.01967566 1.57983398 31.98852539 C0.38003906 31.96338867 0.38003906 31.96338867 -0.84399414 31.93774414 C-9.51003223 31.84257081 -9.51003223 31.84257081 -16.81860352 35.98852539 Z M-38.85766602 55.11352539 C-41.17049189 58.5827642 -41.28245187 60.03558114 -40.85766602 64.11352539 C-39.7942155 66.09382221 -39.7942155 66.09382221 -37.85766602 67.11352539 C-35.4009371 67.78038478 -35.4009371 67.78038478 -32.85766602 67.11352539 C-30.26644697 65.10368969 -30.26644697 65.10368969 -28.85766602 62.11352539 C-29.33275817 58.85367229 -29.33275817 58.85367229 -30.85766602 56.11352539 C-33.64629609 54.71921036 -35.77845469 54.85692445 -38.85766602 55.11352539 Z " fill="#222222" transform="translate(130.857666015625,8.886474609375)"/>
<path d="M0 0 C3.99841697 2.23185799 7.05333063 5.1579822 8.8125 9.4375 C8.8125 11.4175 8.8125 13.3975 8.8125 15.4375 C0.5625 15.4375 -7.6875 15.4375 -16.1875 15.4375 C-15.5275 17.0875 -14.8675 18.7375 -14.1875 20.4375 C-15.5075 20.7675 -16.8275 21.0975 -18.1875 21.4375 C-18.1875 23.4175 -18.1875 25.3975 -18.1875 27.4375 C-20.79875422 26.48004012 -21.97914659 25.78128312 -23.4375 23.375 C-24.82705303 17.93258396 -25.233197 12.75553331 -22.5 7.6875 C-16.59914436 -0.60559442 -9.81815099 -4.35122601 0 0 Z M-16.1875 8.4375 C-16.5175 9.7575 -16.8475 11.0775 -17.1875 12.4375 C-16.1975 12.7675 -15.2075 13.0975 -14.1875 13.4375 C-13.5275 13.1075 -12.8675 12.7775 -12.1875 12.4375 C-12.5175 11.1175 -12.8475 9.7975 -13.1875 8.4375 C-14.1775 8.4375 -15.1675 8.4375 -16.1875 8.4375 Z M-2.1875 8.4375 C-2.5175 9.7575 -2.8475 11.0775 -3.1875 12.4375 C-1.8675 12.7675 -0.5475 13.0975 0.8125 13.4375 C1.1425 12.1175 1.4725 10.7975 1.8125 9.4375 C0.4925 9.1075 -0.8275 8.7775 -2.1875 8.4375 Z " fill="#252525" transform="translate(42.1875,18.5625)"/>
<path d="M0 0 C0.66 0.33 1.32 0.66 2 1 C0.8553125 1.804375 0.8553125 1.804375 -0.3125 2.625 C-3.82433725 5.72848408 -5.66630514 8.45386254 -6.28515625 13.17578125 C-6.47991439 18.21408963 -5.69685048 21.61761797 -3 26 C-2.34 25.34 -1.68 24.68 -1 24 C1.125 24.375 1.125 24.375 3 25 C2.34 23.35 1.68 21.7 1 20 C1.66 20 2.32 20 3 20 C2.34 18.35 1.68 16.7 1 15 C30.04 15 59.08 15 89 15 C89 15.66 89 16.32 89 17 C61.61 17.33 34.22 17.66 6 18 C7.83385923 21.66771845 9.25062829 23.46834996 12.125 26.25 C13.21167969 27.30960938 13.21167969 27.30960938 14.3203125 28.390625 C14.87460937 28.92171875 15.42890625 29.4528125 16 30 C15.67 30.99 15.34 31.98 15 33 C9.99709595 34.25072601 5.73755297 34.01733951 1 32 C-2.99755934 29.33235277 -6.25640849 26.56459097 -8 22 C-8.89446346 14.62587681 -8.560634 8.95416105 -4 3 C-1.75 1.0625 -1.75 1.0625 0 0 Z " fill="#545454" transform="translate(25,19)"/>
<path d="M0 0 C29.04 0 58.08 0 88 0 C88 0.66 88 1.32 88 2 C86.9646109 2.00808685 85.9292218 2.01617371 84.86245728 2.02450562 C75.12088159 2.10187736 65.37944712 2.18959361 55.6380558 2.28752708 C50.62950045 2.33754486 45.62096677 2.38387425 40.61230469 2.421875 C35.78171307 2.45865877 30.95130031 2.50499952 26.12086105 2.55806351 C24.27484641 2.57664431 22.42879338 2.59173854 20.58272171 2.60334396 C18.0036906 2.62014363 15.42507243 2.64916267 12.84619141 2.68115234 C11.69281029 2.68439262 11.69281029 2.68439262 10.51612854 2.68769836 C6.29918232 2.61409789 6.29918232 2.61409789 3 5 C1.5 3.625 1.5 3.625 0 2 C0 1.34 0 0.68 0 0 Z " fill="#C5C5C5" transform="translate(26,34)"/>
<path d="M0 0 C-1.6029053 0.81498562 -3.20737278 1.62689927 -4.8125 2.4375 C-5.70582031 2.88996094 -6.59914063 3.34242188 -7.51953125 3.80859375 C-10 5 -10 5 -13 6 C7.79 6.33 28.58 6.66 50 7 C50 6.01 50 5.02 50 4 C52.97 4.495 52.97 4.495 56 5 C56 6.32 56 7.64 56 9 C31.58 9 7.16 9 -18 9 C-18.33 8.01 -18.66 7.02 -19 6 C-16.2120519 4.80303299 -13.42025583 3.61716986 -10.625 2.4375 C-9.8309375 2.09525391 -9.036875 1.75300781 -8.21875 1.40039062 C-7.45820312 1.08134766 -6.69765625 0.76230469 -5.9140625 0.43359375 C-4.8614624 -0.01415405 -4.8614624 -0.01415405 -3.78759766 -0.47094727 C-2 -1 -2 -1 0 0 Z " fill="#B1B1B1" transform="translate(72,160)"/>
<path d="M0 0 C1.98 0.33 3.96 0.66 6 1 C6 2.32 6 3.64 6 5 C-6.54 4.67 -19.08 4.34 -32 4 C-32 3.67 -32 3.34 -32 3 C-21.44 3 -10.88 3 0 3 C0 2.01 0 1.02 0 0 Z " fill="#A5A5A5" transform="translate(122,164)"/>
<path d="M0 0 C0 1.32 0 2.64 0 4 C-1.98 4.99 -1.98 4.99 -4 6 C-3.34 5.01 -2.68 4.02 -2 3 C-12.23 2.67 -22.46 2.34 -33 2 C-33 1.67 -33 1.34 -33 1 C-21.98440762 0.34235269 -11.03913945 -0.16207546 0 0 Z " fill="#C0C0C0" transform="translate(154,34)"/>
<path d="M0 0 C0.99 0 1.98 0 3 0 C3 0.99 3 1.98 3 3 C4.65 3 6.3 3 8 3 C8.33 2.01 8.66 1.02 9 0 C9.66 1.32 10.32 2.64 11 4 C7.6344583 6.24369447 6.86078219 6.2089196 3 5.8125 C1.700625 5.69841797 1.700625 5.69841797 0.375 5.58203125 C-2.29422076 4.92789656 -3.28213877 4.0964688 -5 2 C-2.525 2.495 -2.525 2.495 0 3 C0 2.01 0 1.02 0 0 Z " fill="#A7A7A7" transform="translate(30,47)"/>
<path d="M0 0 C8.25 0 16.5 0 25 0 C25 0.33 25 0.66 25 1 C18.4 1 11.8 1 5 1 C4.34 2.32 3.68 3.64 3 5 C1.5 3.625 1.5 3.625 0 2 C0 1.34 0 0.68 0 0 Z " fill="#C7C7C7" transform="translate(26,34)"/>
<path d="M0 0 C0.66 0.33 1.32 0.66 2 1 C-0.64 3.64 -3.28 6.28 -6 9 C-6.33 8.34 -6.66 7.68 -7 7 C-4.66666667 4.66666667 -2.33333333 2.33333333 0 0 Z " fill="#262626" transform="translate(27,19)"/>
</svg>
